<svg xmlns="http://www.w3.org/2000/svg" width="32" height="32" fill="none"><path fill="#ECECEC" fill-rule="evenodd" d="M.581 2.912C0 4.052 0 5.546 0 8.533v14.934c0 2.987 0 4.48.581 5.621a5.333 5.333 0 0 0 2.331 2.33C4.052 32 5.546 32 8.533 32h14.934c2.987 0 4.48 0 5.621-.581a5.333 5.333 0 0 0 2.33-2.331c.582-1.14.582-2.634.582-5.621V8.533c0-2.987 0-4.48-.581-5.62A5.333 5.333 0 0 0 29.088.58C27.948 0 26.454 0 23.467 0H8.533c-2.987 0-4.48 0-5.62.581A5.333 5.333 0 0 0 .58 2.912zm13.641 14.866H5.333v8.889h8.89v-8.89z" clip-rule="evenodd"/></svg>
