<svg xmlns="http://www.w3.org/2000/svg" width="32" height="32" viewBox="0 0 32 32" fill="none">
<rect width="32" height="32" fill="black"/>
<path d="M24.7996 5C25.5694 5 25.9544 5.00032 26.2485 5.15005C26.5074 5.28192 26.7181 5.49269 26.8499 5.75149C26.9997 6.04564 27 6.43057 27 7.20037V24.7997C27 25.5695 26.9998 25.9544 26.8499 26.2486C26.7181 26.5073 26.5074 26.7181 26.2485 26.85C25.9544 26.9996 25.5694 27 24.7996 27H7.20034C6.43058 27 6.04559 26.9997 5.75146 26.85C5.49264 26.7181 5.28189 26.5073 5.15002 26.2486C5.00027 25.9544 4.99996 25.5693 4.99996 24.7997V7.20037C4.99996 6.43061 5.00032 6.04563 5.15002 5.75149C5.28189 5.49269 5.49264 5.28192 5.75146 5.15005C6.0456 5.00028 6.43052 5 7.20034 5H24.7996ZM8.66765 17.222V23.3336H14.7792V17.222H8.66765Z" fill="white"/>
</svg>
