<svg width="24" height="24" viewBox="0 0 24 24" fill="none" xmlns="http://www.w3.org/2000/svg">
<rect width="24" height="24" rx="6" fill="white"/>
<g clip-path="url(#clip0_103_748)">
<path fill-rule="evenodd" clip-rule="evenodd" d="M18.7988 13.0111V10.7889L16.3752 10.7889V8.56667H13.9762V5.8999C13.9762 5.8999 11.8652 5.90003 11.0518 5.90003C7.64698 5.90003 5.29883 8.88956 5.29883 11.9C5.29883 14.9682 7.64698 17.8999 11.0518 17.8999C11.8652 17.8999 13.9762 17.8999 13.9762 17.8999V15.2333L16.3752 15.2333V13.0111H18.7988ZM16.3752 13.0111L13.9762 13.0111V10.7889L16.3752 10.7889V13.0111ZM11.5143 15.2333H13.9762V13.0111H11.5143V15.2333ZM13.9762 10.7889H11.5143V8.56667L13.9762 8.56667L13.9762 10.7889ZM9.12898 13.0111H11.5143V10.7889H9.12898V13.0111Z" fill="#180F0A"/>
</g>
<defs>
<clipPath id="clip0_103_748">
<rect width="13.8" height="13.8" fill="white" transform="translate(5 5)"/>
</clipPath>
</defs>
</svg>
