<svg width="85" height="20" viewBox="0 0 85 20" fill="none" xmlns="http://www.w3.org/2000/svg">
<mask id="mask0_295_207" style="mask-type:luminance" maskUnits="userSpaceOnUse" x="0" y="0" width="20" height="20">
<path d="M20 0H0V20H20V0Z" fill="white"/>
</mask>
<g mask="url(#mask0_295_207)">
<path d="M17.9938 0.000198364C18.6933 0.000198367 19.0432 0.000490461 19.3105 0.136566C19.5457 0.256407 19.7372 0.44795 19.857 0.683153C19.9931 0.950464 19.9935 1.30029 19.9935 1.99988V17.994C19.9935 18.6936 19.9932 19.0434 19.857 19.3107C19.7372 19.5458 19.5457 19.7374 19.3105 19.8573C19.0432 19.9933 18.6933 19.9936 17.9938 19.9936H1.99969C1.30013 19.9936 0.950256 19.9934 0.682949 19.8573C0.447747 19.7374 0.256209 19.5458 0.136367 19.3107C0.000273591 19.0434 0 18.6935 0 17.994V1.99988C0 1.30033 0.000330821 0.950459 0.136367 0.683153C0.256209 0.44795 0.447747 0.256407 0.682949 0.136566C0.950268 0.000455309 1.30008 0.00019837 1.99969 0.000198364H17.9938ZM3.33317 11.1074V16.6616H8.88734V11.1074H3.33317Z" fill="#EDEDED"/>
</g>
<path d="M29.5678 15.0947V4.7878H31.7329L34.0434 10.8266C34.1355 11.0895 34.2555 11.4353 34.403 11.8642C34.5507 12.2885 34.6843 12.6805 34.8042 13.0401C34.9196 12.6805 35.051 12.2885 35.1985 11.8642C35.3461 11.4353 35.466 11.0895 35.5582 10.8266L37.834 4.7878H40.0061V15.0947H38.4981V9.47774C38.4981 9.10882 38.5027 8.67994 38.512 8.19112C38.5211 7.69769 38.5327 7.20656 38.5465 6.71774C38.3574 7.27574 38.1776 7.80145 38.007 8.29488C37.8409 8.78832 37.7026 9.18261 37.5919 9.47774L35.4199 15.0947H34.1609L31.9681 9.47774C31.8621 9.19644 31.726 8.82521 31.5601 8.36406C31.3986 7.89829 31.2233 7.39793 31.0342 6.863C31.0481 7.33338 31.0597 7.79915 31.0689 8.2603C31.0781 8.72146 31.0828 9.12727 31.0828 9.47774V15.0947H29.5678ZM44.8966 15.2606C44.1725 15.2606 43.55 15.097 43.029 14.7695C42.5124 14.4421 42.1135 13.9924 41.8322 13.4206C41.5555 12.8442 41.4172 12.1893 41.4172 11.4561C41.4172 10.7136 41.5624 10.0542 41.853 9.47774C42.1435 8.90131 42.5447 8.44938 43.0566 8.12195C43.5685 7.78992 44.1564 7.62391 44.8205 7.62391C45.5123 7.62391 46.1117 7.78531 46.619 8.10812C47.1309 8.43093 47.5275 8.88055 47.8088 9.45699C48.0901 10.0288 48.2308 10.6906 48.2308 11.4423V11.8366H42.856C42.8836 12.496 43.0727 13.0287 43.4232 13.4344C43.7783 13.8403 44.2764 14.0431 44.9173 14.0431C45.3969 14.0431 45.7912 13.9348 46.1003 13.7181C46.4092 13.5013 46.6144 13.2201 46.7158 12.8742H48.1201C48.0324 13.3446 47.8365 13.7596 47.5321 14.1192C47.2324 14.479 46.8542 14.7603 46.3976 14.9631C45.9457 15.1615 45.4454 15.2606 44.8966 15.2606ZM42.8699 10.7298H46.8058C46.7458 10.1487 46.5406 9.68987 46.1901 9.35324C45.8396 9.01198 45.3878 8.84135 44.8343 8.84135C44.2809 8.84135 43.829 9.01198 43.4786 9.35324C43.1327 9.68987 42.9297 10.1487 42.8699 10.7298ZM53.0176 7.78992V8.99354H51.5373V13.1647C51.5373 13.4367 51.5926 13.6258 51.7033 13.7319C51.8139 13.838 52.0146 13.891 52.3051 13.891H53.0176V15.0947H52.0976C50.7464 15.0947 50.0707 14.5136 50.0707 13.3515V8.99354H48.7841V7.78992H50.0707V5.79773H51.5373V7.78992H53.0176ZM57.168 15.2606C56.4439 15.2606 55.8214 15.097 55.3003 14.7695C54.7838 14.4421 54.3849 13.9924 54.1036 13.4206C53.8268 12.8442 53.6886 12.1893 53.6886 11.4561C53.6886 10.7136 53.8338 10.0542 54.1243 9.47774C54.4148 8.90131 54.8161 8.44938 55.3279 8.12195C55.8398 7.78992 56.4278 7.62391 57.0919 7.62391C57.7836 7.62391 58.3831 7.78531 58.8904 8.10812C59.4022 8.43093 59.7988 8.88055 60.0802 9.45699C60.3614 10.0288 60.5021 10.6906 60.5021 11.4423V11.8366H55.1273C55.155 12.496 55.3441 13.0287 55.6946 13.4344C56.0496 13.8403 56.5477 14.0431 57.1887 14.0431C57.6683 14.0431 58.0626 13.9348 58.3715 13.7181C58.6806 13.5013 58.8858 13.2201 58.9872 12.8742H60.3914C60.3038 13.3446 60.1078 13.7596 59.8034 14.1192C59.5036 14.479 59.1256 14.7603 58.669 14.9631C58.2171 15.1615 57.7167 15.2606 57.168 15.2606ZM55.1412 10.7298H59.0772C59.0172 10.1487 58.812 9.68987 58.4615 9.35324C58.111 9.01198 57.659 8.84135 57.1057 8.84135C56.5523 8.84135 56.1003 9.01198 55.7498 9.35324C55.4041 9.68987 55.2011 10.1487 55.1412 10.7298ZM61.768 15.0947V7.78992H63.1653V8.97279H63.1929C63.3267 8.57157 63.5365 8.2603 63.8224 8.03894C64.1129 7.81297 64.4911 7.69999 64.9568 7.69999C65.0675 7.69999 65.169 7.7046 65.2612 7.71383C65.3534 7.72305 65.4295 7.72997 65.4895 7.73458V9.09729C65.4341 9.08346 65.335 9.06962 65.192 9.05579C65.0491 9.03734 64.8923 9.02812 64.7216 9.02812C64.3113 9.02812 63.9584 9.17107 63.6633 9.45699C63.3728 9.74291 63.2276 10.1833 63.2276 10.7782V15.0947H61.768ZM69.6122 15.2606C68.9158 15.2606 68.3049 15.0992 67.7792 14.7765C67.2534 14.4536 66.843 14.0063 66.5478 13.4344C66.2573 12.8626 66.1121 12.2032 66.1121 11.4561C66.1121 10.6998 66.2573 10.0357 66.5478 9.46391C66.843 8.88747 67.2534 8.43784 67.7792 8.11503C68.3049 7.78761 68.9158 7.62391 69.6122 7.62391C70.3086 7.62391 70.9173 7.78761 71.4384 8.11503C71.9641 8.43784 72.3722 8.88747 72.6628 9.46391C72.9579 10.0357 73.1055 10.6998 73.1055 11.4561C73.1055 12.2032 72.9579 12.8626 72.6628 13.4344C72.3722 14.0063 71.9641 14.4536 71.4384 14.7765C70.9173 15.0992 70.3086 15.2606 69.6122 15.2606ZM69.6122 14.0017C70.2393 14.0017 70.7328 13.7711 71.0925 13.3099C71.4523 12.8487 71.6321 12.2309 71.6321 11.4561C71.6321 10.6721 71.45 10.0473 71.0856 9.5815C70.7259 9.11573 70.2348 8.88286 69.6122 8.88286C68.9897 8.88286 68.4962 9.11573 68.1319 9.5815C67.7722 10.0427 67.5924 10.6675 67.5924 11.4561C67.5924 12.2355 67.7722 12.8557 68.1319 13.3169C68.4917 13.7733 68.9851 14.0017 69.6122 14.0017ZM74.399 15.0947V7.78992H75.8586V15.0947H74.399ZM75.1254 6.53096C74.867 6.53096 74.6481 6.44566 74.4681 6.27502C74.2929 6.09978 74.2053 5.88766 74.2053 5.63863C74.2053 5.385 74.2929 5.17286 74.4681 5.00224C74.6481 4.827 74.867 4.73938 75.1254 4.73938C75.3836 4.73938 75.6027 4.827 75.7825 5.00224C75.9623 5.17286 76.0522 5.385 76.0522 5.63863C76.0522 5.88766 75.9623 6.09978 75.7825 6.27502C75.6027 6.44566 75.3836 6.53096 75.1254 6.53096ZM80.3202 15.2399C79.6838 15.2399 79.1281 15.0808 78.6531 14.7626C78.1781 14.4397 77.8092 13.9947 77.5464 13.4276C77.2835 12.8557 77.1521 12.1939 77.1521 11.4423C77.1521 10.6906 77.2835 10.0311 77.5464 9.46391C77.8139 8.89208 78.1851 8.44706 78.6601 8.12887C79.1351 7.80606 79.6861 7.64466 80.3133 7.64466C80.7883 7.64466 81.2218 7.7438 81.6137 7.9421C82.0057 8.14039 82.3193 8.44245 82.5546 8.84827H82.5684V4.7878H84.0279V15.0947H82.596V13.981H82.5821C82.3378 14.4052 82.0173 14.7211 81.6207 14.9286C81.2287 15.1361 80.7952 15.2399 80.3202 15.2399ZM80.6177 13.981C81.2402 13.981 81.7359 13.7503 82.1048 13.2892C82.4784 12.8235 82.6652 12.2078 82.6652 11.4423C82.6652 10.6721 82.4784 10.0565 82.1048 9.59534C81.7359 9.12957 81.2402 8.89669 80.6177 8.89669C80.0274 8.89669 79.5478 9.11573 79.1788 9.55384C78.8146 9.98732 78.6324 10.6168 78.6324 11.4423C78.6324 12.2678 78.8146 12.8972 79.1788 13.3307C79.5478 13.7642 80.0274 13.981 80.6177 13.981Z" fill="#EDEDED"/>
</svg>
