<svg width="99" height="28" viewBox="0 0 99 28" fill="none" xmlns="http://www.w3.org/2000/svg">
<path d="M21.9938 4C22.6933 4 23.0432 4.00029 23.3105 4.13637C23.5457 4.25621 23.7372 4.44775 23.857 4.68295C23.9931 4.95027 23.9935 5.30009 23.9935 5.99968V21.9938C23.9935 22.6934 23.9932 23.0432 23.857 23.3105C23.7372 23.5456 23.5457 23.7372 23.3105 23.8571C23.0432 23.9931 22.6933 23.9934 21.9938 23.9934H5.99969C5.30013 23.9934 4.95026 23.9932 4.68295 23.8571C4.44775 23.7372 4.25621 23.5456 4.13637 23.3105C4.00027 23.0432 4 22.6933 4 21.9938V5.99968C4 5.30013 4.00033 4.95026 4.13637 4.68295C4.25621 4.44775 4.44775 4.25621 4.68295 4.13637C4.95027 4.00026 5.30008 4 5.99969 4H21.9938ZM7.33317 15.1072V20.6614H12.8873V15.1072H7.33317Z" fill="#EDEDED"/>
<path d="M31.9935 19.8074V8.05192H34.4629L37.0981 14.9395C37.2032 15.2393 37.34 15.6337 37.5083 16.1229C37.6767 16.6068 37.8291 17.0539 37.9658 17.4641C38.0974 17.0539 38.2473 16.6068 38.4156 16.1229C38.584 15.6337 38.7206 15.2393 38.8259 14.9395L41.4215 8.05192H43.8989V19.8074H42.1789V13.401C42.1789 12.9803 42.1842 12.4911 42.1947 11.9336C42.2052 11.3708 42.2184 10.8106 42.2342 10.2531C42.0185 10.8895 41.8134 11.4891 41.6188 12.0519C41.4293 12.6147 41.2716 13.0644 41.1454 13.401L38.668 19.8074H37.2322L34.7312 13.401C34.6103 13.0802 34.455 12.6568 34.2658 12.1308C34.0816 11.5996 33.8817 11.0289 33.666 10.4188C33.6818 10.9553 33.695 11.4865 33.7056 12.0125C33.716 12.5385 33.7214 13.0013 33.7214 13.401V19.8074H31.9935ZM49.4767 19.9967C48.6509 19.9967 47.9409 19.81 47.3466 19.4365C46.7575 19.0632 46.3025 18.5503 45.9816 17.898C45.6661 17.2406 45.5083 16.4938 45.5083 15.6575C45.5083 14.8106 45.6739 14.0585 46.0054 13.401C46.3367 12.7436 46.7943 12.2281 47.3781 11.8547C47.962 11.476 48.6325 11.2867 49.3899 11.2867C50.1789 11.2867 50.8626 11.4707 51.4412 11.8389C52.025 12.2071 52.4773 12.7199 52.7982 13.3774C53.1191 14.0296 53.2795 14.7843 53.2795 15.6417V16.0914H47.1494C47.1808 16.8435 47.3965 17.4511 47.7962 17.9138C48.2013 18.3768 48.7693 18.6081 49.5004 18.6081C50.0473 18.6081 50.4971 18.4846 50.8496 18.2373C51.2019 17.9901 51.436 17.6693 51.5516 17.2748H53.1533C53.0533 17.8114 52.8298 18.2847 52.4827 18.6949C52.1408 19.1052 51.7095 19.4261 51.1887 19.6574C50.6733 19.8836 50.1027 19.9967 49.4767 19.9967ZM47.1652 14.829H51.6542C51.5858 14.1663 51.3518 13.643 50.952 13.259C50.5523 12.8698 50.0369 12.6752 49.4057 12.6752C48.7745 12.6752 48.2591 12.8698 47.8594 13.259C47.4649 13.643 47.2334 14.1663 47.1652 14.829ZM58.7391 11.476V12.8488H57.0508V17.6061C57.0508 17.9165 57.1138 18.1321 57.2401 18.2531C57.3663 18.3741 57.5951 18.4346 57.9265 18.4346H58.7391V19.8074H57.6898C56.1487 19.8074 55.3781 19.1446 55.3781 17.8192V12.8488H53.9106V11.476H55.3781V9.2038H57.0508V11.476H58.7391ZM63.4728 19.9967C62.647 19.9967 61.937 19.81 61.3426 19.4365C60.7536 19.0632 60.2986 18.5503 59.9777 17.898C59.6621 17.2406 59.5044 16.4938 59.5044 15.6575C59.5044 14.8106 59.67 14.0585 60.0014 13.401C60.3327 12.7436 60.7904 12.2281 61.3742 11.8547C61.958 11.476 62.6286 11.2867 63.386 11.2867C64.1749 11.2867 64.8587 11.4707 65.4373 11.8389C66.0211 12.2071 66.4735 12.7199 66.7943 13.3774C67.1151 14.0296 67.2755 14.7843 67.2755 15.6417V16.0914H61.1453C61.1769 16.8435 61.3926 17.4511 61.7923 17.9138C62.1973 18.3768 62.7654 18.6081 63.4965 18.6081C64.0435 18.6081 64.4932 18.4846 64.8455 18.2373C65.198 17.9901 65.4321 17.6693 65.5478 17.2748H67.1493C67.0494 17.8114 66.8258 18.2847 66.4787 18.6949C66.1368 19.1052 65.7056 19.4261 65.1848 19.6574C64.6694 19.8836 64.0987 19.9967 63.4728 19.9967ZM61.1611 14.829H65.6504C65.582 14.1663 65.3479 13.643 64.9482 13.259C64.5484 12.8698 64.0329 12.6752 63.4018 12.6752C62.7706 12.6752 62.2551 12.8698 61.8554 13.259C61.461 13.643 61.2295 14.1663 61.1611 14.829ZM68.7194 19.8074V11.476H70.3131V12.8251H70.3445C70.4971 12.3675 70.7364 12.0125 71.0625 11.76C71.3939 11.5023 71.8252 11.3734 72.3564 11.3734C72.4826 11.3734 72.5984 11.3787 72.7035 11.3892C72.8087 11.3997 72.8955 11.4076 72.9639 11.4129V12.9671C72.9008 12.9513 72.7877 12.9356 72.6247 12.9198C72.4616 12.8987 72.2828 12.8882 72.0881 12.8882C71.6201 12.8882 71.2176 13.0513 70.8811 13.3774C70.5498 13.7035 70.3841 14.2058 70.3841 14.8843V19.8074H68.7194ZM77.6661 19.9967C76.8718 19.9967 76.175 19.8126 75.5754 19.4445C74.9758 19.0762 74.5077 18.566 74.171 17.9138C73.8397 17.2616 73.674 16.5096 73.674 15.6575C73.674 14.7949 73.8397 14.0375 74.171 13.3853C74.5077 12.7278 74.9758 12.215 75.5754 11.8468C76.175 11.4734 76.8718 11.2867 77.6661 11.2867C78.4603 11.2867 79.1546 11.4734 79.749 11.8468C80.3486 12.215 80.8139 12.7278 81.1454 13.3853C81.482 14.0375 81.6504 14.7949 81.6504 15.6575C81.6504 16.5096 81.482 17.2616 81.1454 17.9138C80.8139 18.566 80.3486 19.0762 79.749 19.4445C79.1546 19.8126 78.4603 19.9967 77.6661 19.9967ZM77.6661 18.5608C78.3814 18.5608 78.9441 18.2978 79.3544 17.7718C79.7647 17.2458 79.9698 16.5411 79.9698 15.6575C79.9698 14.7633 79.7621 14.0506 79.3466 13.5194C78.9363 12.9881 78.3761 12.7225 77.6661 12.7225C76.9561 12.7225 76.3933 12.9881 75.9777 13.5194C75.5674 14.0454 75.3623 14.758 75.3623 15.6575C75.3623 16.5464 75.5674 17.2538 75.9777 17.7798C76.388 18.3004 76.9508 18.5608 77.6661 18.5608ZM83.1257 19.8074V11.476H84.7904V19.8074H83.1257ZM83.9541 10.0401C83.6595 10.0401 83.4097 9.9428 83.2045 9.74818C83.0046 9.54831 82.9048 9.30637 82.9048 9.02234C82.9048 8.73306 83.0046 8.49111 83.2045 8.2965C83.4097 8.09664 83.6595 7.9967 83.9541 7.9967C84.2486 7.9967 84.4985 8.09664 84.7036 8.2965C84.9087 8.49111 85.0113 8.73306 85.0113 9.02234C85.0113 9.30637 84.9087 9.54831 84.7036 9.74818C84.4985 9.9428 84.2486 10.0401 83.9541 10.0401ZM89.8791 19.9731C89.1532 19.9731 88.5194 19.7916 87.9777 19.4287C87.4359 19.0604 87.0151 18.5529 86.7154 17.906C86.4155 17.2538 86.2657 16.499 86.2657 15.6417C86.2657 14.7843 86.4155 14.0322 86.7154 13.3853C87.0205 12.7331 87.4439 12.2255 87.9856 11.8626C88.5274 11.4944 89.1558 11.3103 89.8712 11.3103C90.413 11.3103 90.9074 11.4234 91.3544 11.6496C91.8015 11.8757 92.1592 12.2202 92.4275 12.6831H92.4433V8.05192H94.1079V19.8074H92.4747V18.5372H92.4589C92.1802 19.021 91.8147 19.3813 91.3623 19.618C90.9152 19.8547 90.4208 19.9731 89.8791 19.9731ZM90.2184 18.5372C90.9284 18.5372 91.4938 18.2741 91.9145 17.7482C92.3407 17.217 92.5537 16.5148 92.5537 15.6417C92.5537 14.7633 92.3407 14.0611 91.9145 13.5352C91.4938 13.0039 90.9284 12.7383 90.2184 12.7383C89.5451 12.7383 88.9981 12.9881 88.5773 13.4878C88.1619 13.9822 87.954 14.7002 87.954 15.6417C87.954 16.5832 88.1619 17.3011 88.5773 17.7956C88.9981 18.2899 89.5451 18.5372 90.2184 18.5372Z" fill="#EDEDED"/>
</svg>
