<svg width="23" height="24" viewBox="0 0 23 24" fill="none" xmlns="http://www.w3.org/2000/svg">
<mask id="mask0_30_5" style="mask-type:luminance" maskUnits="userSpaceOnUse" x="0" y="0" width="23" height="24">
<path d="M22.9999 0.462891H0.00170898V23.538H22.9999V0.462891Z" fill="white"/>
</mask>
<g mask="url(#mask0_30_5)">
<path fill-rule="evenodd" clip-rule="evenodd" d="M22.9994 13.858V10.1421H18.9604V6.4264H14.9623V1.96729C14.9623 1.96729 11.4444 1.96749 10.0887 1.96749C4.4145 1.96749 0.501221 6.96633 0.501221 12C0.501221 17.1305 4.4145 22.0327 10.0887 22.0327C11.4444 22.0327 14.9623 22.0327 14.9623 22.0327V17.5737H18.9604V13.858H22.9994ZM18.9604 13.858H14.9623V10.1421H18.9604V13.858ZM10.8595 17.5737H14.9623V13.858H10.8595V17.5737ZM14.9623 10.1421H10.8595V6.4264H14.9623V10.1421ZM6.88431 13.858H10.8595V10.1421H6.88431V13.858Z" fill="#200D05"/>
</g>
</svg>
