<svg width="85" height="20" viewBox="0 0 85 20" fill="none" xmlns="http://www.w3.org/2000/svg">
<mask id="mask0_295_214" style="mask-type:luminance" maskUnits="userSpaceOnUse" x="0" y="0" width="20" height="20">
<path d="M19.999 0.000518799H4.57764e-05V19.9995H19.999V0.000518799Z" fill="white"/>
</mask>
<g mask="url(#mask0_295_214)">
<path d="M17.9929 0.000900269C18.6924 0.000900272 19.0423 0.00119235 19.3095 0.137261C19.5447 0.257096 19.7362 0.448629 19.8561 0.68382C19.9921 0.951118 19.9925 1.30093 19.9925 2.00048V17.9938C19.9925 18.6933 19.9923 19.0431 19.8561 19.3105C19.7362 19.5456 19.5447 19.7372 19.3095 19.857C19.0423 19.993 18.6924 19.9933 17.9929 19.9933H1.9996C1.30009 19.9933 0.950224 19.9931 0.68293 19.857C0.44774 19.7372 0.256211 19.5456 0.136375 19.3105C0.000288833 19.0431 1.52588e-05 18.6932 1.52588e-05 17.9938V2.00048C1.52588e-05 1.30096 0.000346066 0.951114 0.136375 0.68382C0.256211 0.448629 0.44774 0.257096 0.68293 0.137261C0.950235 0.0011572 1.30003 0.000900274 1.9996 0.000900269H17.9929ZM3.70911 11.4837V16.2854H8.51082V11.4837H3.70911Z" fill="black"/>
</g>
<path d="M29.5668 15.0947V4.78779H31.7319L34.0424 10.8266C34.1345 11.0895 34.2545 11.4353 34.402 11.8642C34.5496 12.2885 34.6833 12.6805 34.8032 13.0401C34.9185 12.6805 35.0499 12.2885 35.1975 11.8642C35.3451 11.4353 35.465 11.0895 35.5572 10.8266L37.833 4.78779H40.0051V15.0947H38.4971V9.47774C38.4971 9.10881 38.5017 8.67993 38.511 8.19111C38.5201 7.69768 38.5317 7.20655 38.5455 6.71773C38.3564 7.27573 38.1766 7.80144 38.006 8.29487C37.8399 8.78832 37.7016 9.1826 37.5909 9.47774L35.4188 15.0947H34.1599L31.9671 9.47774C31.8611 9.19643 31.725 8.82521 31.5591 8.36405C31.3976 7.89828 31.2223 7.39792 31.0332 6.86299C31.0471 7.33337 31.0586 7.79914 31.0679 8.26029C31.0771 8.72145 31.0818 9.12726 31.0818 9.47774V15.0947H29.5668ZM44.8956 15.2606C44.1715 15.2606 43.549 15.0969 43.028 14.7695C42.5114 14.4421 42.1125 13.9924 41.8312 13.4206C41.5545 12.8442 41.4162 12.1893 41.4162 11.4561C41.4162 10.7136 41.5614 10.0542 41.852 9.47774C42.1425 8.9013 42.5437 8.44937 43.0556 8.12195C43.5675 7.78991 44.1554 7.6239 44.8195 7.6239C45.5113 7.6239 46.1107 7.7853 46.618 8.10811C47.1298 8.43092 47.5264 8.88055 47.8078 9.45699C48.0891 10.0288 48.2298 10.6906 48.2298 11.4423V11.8366H42.855C42.8826 12.496 43.0717 13.0287 43.4222 13.4344C43.7773 13.8403 44.2753 14.0431 44.9163 14.0431C45.3959 14.0431 45.7902 13.9348 46.0993 13.7181C46.4082 13.5013 46.6134 13.22 46.7148 12.8741H48.1191C48.0314 13.3446 47.8355 13.7596 47.5311 14.1192C47.2314 14.479 46.8532 14.7603 46.3966 14.9631C45.9447 15.1615 45.4444 15.2606 44.8956 15.2606ZM42.8689 10.7298H46.8048C46.7448 10.1487 46.5396 9.68986 46.1891 9.35323C45.8386 9.01197 45.3867 8.84135 44.8333 8.84135C44.2799 8.84135 43.828 9.01197 43.4776 9.35323C43.1317 9.68986 42.9287 10.1487 42.8689 10.7298ZM53.0166 7.78991V8.99353H51.5363V13.1646C51.5363 13.4367 51.5916 13.6258 51.7023 13.7319C51.8129 13.838 52.0136 13.891 52.3041 13.891H53.0166V15.0947H52.0966C50.7454 15.0947 50.0697 14.5135 50.0697 13.3514V8.99353H48.7831V7.78991H50.0697V5.79772H51.5363V7.78991H53.0166ZM57.167 15.2606C56.4429 15.2606 55.8204 15.0969 55.2992 14.7695C54.7828 14.4421 54.3839 13.9924 54.1026 13.4206C53.8258 12.8442 53.6875 12.1893 53.6875 11.4561C53.6875 10.7136 53.8328 10.0542 54.1233 9.47774C54.4138 8.9013 54.8151 8.44937 55.3269 8.12195C55.8388 7.78991 56.4268 7.6239 57.0909 7.6239C57.7825 7.6239 58.3821 7.7853 58.8894 8.10811C59.4012 8.43092 59.7978 8.88055 60.0792 9.45699C60.3604 10.0288 60.5011 10.6906 60.5011 11.4423V11.8366H55.1263C55.154 12.496 55.3431 13.0287 55.6936 13.4344C56.0486 13.8403 56.5467 14.0431 57.1877 14.0431C57.6673 14.0431 58.0616 13.9348 58.3705 13.7181C58.6796 13.5013 58.8848 13.22 58.9862 12.8741H60.3904C60.3028 13.3446 60.1068 13.7596 59.8024 14.1192C59.5026 14.479 59.1246 14.7603 58.668 14.9631C58.2161 15.1615 57.7157 15.2606 57.167 15.2606ZM55.1401 10.7298H59.0762C59.0162 10.1487 58.811 9.68986 58.4605 9.35323C58.11 9.01197 57.658 8.84135 57.1047 8.84135C56.5513 8.84135 56.0993 9.01197 55.7488 9.35323C55.4031 9.68986 55.2001 10.1487 55.1401 10.7298ZM61.767 15.0947V7.78991H63.1643V8.97278H63.1919C63.3257 8.57157 63.5355 8.26029 63.8214 8.03893C64.1119 7.81296 64.4901 7.69998 64.9558 7.69998C65.0665 7.69998 65.168 7.70459 65.2602 7.71382C65.3524 7.72305 65.4285 7.72996 65.4885 7.73457V9.09729C65.4331 9.08345 65.334 9.06961 65.191 9.05578C65.0481 9.03733 64.8913 9.02811 64.7206 9.02811C64.3103 9.02811 63.9574 9.17107 63.6623 9.45699C63.3718 9.7429 63.2266 10.1833 63.2266 10.7782V15.0947H61.767ZM69.6112 15.2606C68.9148 15.2606 68.3039 15.0992 67.7781 14.7765C67.2524 14.4536 66.842 14.0063 66.5468 13.4344C66.2563 12.8626 66.111 12.2032 66.111 11.4561C66.111 10.6998 66.2563 10.0357 66.5468 9.4639C66.842 8.88746 67.2524 8.43783 67.7781 8.11502C68.3039 7.7876 68.9148 7.6239 69.6112 7.6239C70.3076 7.6239 70.9163 7.7876 71.4374 8.11502C71.9631 8.43783 72.3712 8.88746 72.6618 9.4639C72.9568 10.0357 73.1045 10.6998 73.1045 11.4561C73.1045 12.2032 72.9568 12.8626 72.6618 13.4344C72.3712 14.0063 71.9631 14.4536 71.4374 14.7765C70.9163 15.0992 70.3076 15.2606 69.6112 15.2606ZM69.6112 14.0017C70.2383 14.0017 70.7318 13.7711 71.0915 13.3099C71.4512 12.8487 71.6311 12.2309 71.6311 11.4561C71.6311 10.6721 71.449 10.0473 71.0846 9.58149C70.7249 9.11573 70.2338 8.88285 69.6112 8.88285C68.9887 8.88285 68.4952 9.11573 68.1309 9.58149C67.7712 10.0426 67.5913 10.6675 67.5913 11.4561C67.5913 12.2355 67.7712 12.8557 68.1309 13.3169C68.4906 13.7733 68.9841 14.0017 69.6112 14.0017ZM74.398 15.0947V7.78991H75.8576V15.0947H74.398ZM75.1244 6.53095C74.866 6.53095 74.6471 6.44565 74.4671 6.27501C74.2919 6.09978 74.2043 5.88765 74.2043 5.63862C74.2043 5.38499 74.2919 5.17285 74.4671 5.00223C74.6471 4.82699 74.866 4.73937 75.1244 4.73937C75.3826 4.73937 75.6016 4.82699 75.7815 5.00223C75.9613 5.17285 76.0512 5.38499 76.0512 5.63862C76.0512 5.88765 75.9613 6.09978 75.7815 6.27501C75.6016 6.44565 75.3826 6.53095 75.1244 6.53095ZM80.3192 15.2399C79.6828 15.2399 79.1271 15.0808 78.6521 14.7626C78.1771 14.4397 77.8082 13.9947 77.5454 13.4276C77.2825 12.8557 77.1511 12.1939 77.1511 11.4423C77.1511 10.6906 77.2825 10.0311 77.5454 9.4639C77.8129 8.89207 78.1841 8.44706 78.6591 8.12886C79.1341 7.80605 79.6851 7.64465 80.3123 7.64465C80.7873 7.64465 81.2208 7.7438 81.6127 7.9421C82.0047 8.14039 82.3183 8.44244 82.5535 8.84826H82.5674V4.78779H84.0269V15.0947H82.595V13.981H82.5811C82.3368 14.4052 82.0163 14.7211 81.6197 14.9286C81.2277 15.1361 80.7942 15.2399 80.3192 15.2399ZM80.6167 13.981C81.2392 13.981 81.7349 13.7503 82.1038 13.2892C82.4774 12.8234 82.6642 12.2078 82.6642 11.4423C82.6642 10.6721 82.4774 10.0565 82.1038 9.59533C81.7349 9.12956 81.2392 8.89669 80.6167 8.89669C80.0264 8.89669 79.5468 9.11573 79.1778 9.55383C78.8136 9.98731 78.6314 10.6168 78.6314 11.4423C78.6314 12.2677 78.8136 12.8972 79.1778 13.3307C79.5468 13.7642 80.0264 13.981 80.6167 13.981Z" fill="black"/>
</svg>
