<svg width="99" height="28" viewBox="0 0 99 28" fill="none" xmlns="http://www.w3.org/2000/svg">
<path d="M21.9929 4C22.6924 4 23.0423 4.00029 23.3095 4.13636C23.5447 4.2562 23.7362 4.44773 23.856 4.68292C23.9921 4.95022 23.9925 5.30003 23.9925 5.99958V21.9929C23.9925 22.6924 23.9922 23.0422 23.856 23.3096C23.7362 23.5447 23.5447 23.7363 23.3095 23.8561C23.0423 23.9921 22.6924 23.9924 21.9929 23.9924H5.99959C5.30007 23.9924 4.95021 23.9922 4.68291 23.8561C4.44772 23.7363 4.2562 23.5447 4.13636 23.3096C4.00027 23.0422 4 22.6923 4 21.9929V5.99958C4 5.30006 4.00033 4.95021 4.13636 4.68292C4.2562 4.44773 4.44772 4.2562 4.68291 4.13636C4.95022 4.00026 5.30001 4 5.99959 4H21.9929ZM7.70909 15.4828V20.2845H12.5108V15.4828H7.70909Z" fill="black"/>
<path d="M31.9925 19.8069V8.05143H34.4619L37.0971 14.939C37.2022 15.2388 37.339 15.6332 37.5073 16.1224C37.6757 16.6063 37.8281 17.0534 37.9648 17.4636C38.0964 17.0534 38.2463 16.6063 38.4145 16.1224C38.583 15.6332 38.7196 15.2388 38.8249 14.939L41.4205 8.05143H43.8979V19.8069H42.1779V13.4005C42.1779 12.9798 42.1832 12.4906 42.1937 11.9331C42.2042 11.3703 42.2174 10.8101 42.2332 10.2526C42.0175 10.889 41.8124 11.4886 41.6178 12.0514C41.4283 12.6142 41.2706 13.0639 41.1444 13.4005L38.667 19.8069H37.2311L34.7301 13.4005C34.6093 13.0797 34.454 12.6563 34.2647 12.1303C34.0805 11.5991 33.8807 11.0284 33.665 10.4183C33.6808 10.9548 33.694 11.486 33.7046 12.012C33.715 12.538 33.7204 13.0008 33.7204 13.4005V19.8069H31.9925ZM49.4757 19.9962C48.6499 19.9962 47.9398 19.8095 47.3456 19.436C46.7564 19.0627 46.3015 18.5498 45.9806 17.8975C45.6651 17.2401 45.5073 16.4933 45.5073 15.657C45.5073 14.8101 45.6729 14.058 46.0044 13.4005C46.3357 12.7431 46.7933 12.2276 47.3771 11.8542C47.961 11.4755 48.6315 11.2862 49.3889 11.2862C50.1779 11.2862 50.8616 11.4702 51.4402 11.8384C52.024 12.2066 52.4763 12.7194 52.7972 13.3769C53.1181 14.0291 53.2785 14.7838 53.2785 15.6412V16.0909H47.1483C47.1798 16.843 47.3955 17.4506 47.7952 17.9133C48.2003 18.3763 48.7683 18.6076 49.4994 18.6076C50.0463 18.6076 50.4961 18.4841 50.8485 18.2368C51.2009 17.9896 51.435 17.6688 51.5506 17.2743H53.1523C53.0523 17.8109 52.8288 18.2842 52.4817 18.6944C52.1398 19.1047 51.7085 19.4256 51.1877 19.6569C50.6723 19.8832 50.1017 19.9962 49.4757 19.9962ZM47.1641 14.8285H51.6532C51.5848 14.1658 51.3508 13.6425 50.951 13.2585C50.5513 12.8693 50.0359 12.6747 49.4047 12.6747C48.7735 12.6747 48.2581 12.8693 47.8584 13.2585C47.4639 13.6425 47.2324 14.1658 47.1641 14.8285ZM58.7381 11.4755V12.8483H57.0498V17.6056C57.0498 17.916 57.1128 18.1316 57.239 18.2526C57.3653 18.3736 57.5941 18.4341 57.9255 18.4341H58.7381V19.8069H57.6888C56.1477 19.8069 55.3771 19.1441 55.3771 17.8187V12.8483H53.9096V11.4755H55.3771V9.2033H57.0498V11.4755H58.7381ZM63.4718 19.9962C62.646 19.9962 61.936 19.8095 61.3416 19.436C60.7526 19.0627 60.2976 18.5498 59.9767 17.8975C59.6611 17.2401 59.5034 16.4933 59.5034 15.657C59.5034 14.8101 59.669 14.058 60.0004 13.4005C60.3317 12.7431 60.7894 12.2276 61.3732 11.8542C61.957 11.4755 62.6276 11.2862 63.385 11.2862C64.1739 11.2862 64.8577 11.4702 65.4363 11.8384C66.0201 12.2066 66.4724 12.7194 66.7933 13.3769C67.1141 14.0291 67.2745 14.7838 67.2745 15.6412V16.0909H61.1443C61.1759 16.843 61.3916 17.4506 61.7913 17.9133C62.1963 18.3763 62.7644 18.6076 63.4955 18.6076C64.0425 18.6076 64.4922 18.4841 64.8445 18.2368C65.197 17.9896 65.4311 17.6688 65.5467 17.2743H67.1483C67.0484 17.8109 66.8248 18.2842 66.4777 18.6944C66.1358 19.1047 65.7046 19.4256 65.1838 19.6569C64.6684 19.8832 64.0977 19.9962 63.4718 19.9962ZM61.1601 14.8285H65.6494C65.5809 14.1658 65.3469 13.6425 64.9471 13.2585C64.5474 12.8693 64.0319 12.6747 63.4008 12.6747C62.7696 12.6747 62.2541 12.8693 61.8544 13.2585C61.46 13.6425 61.2285 14.1658 61.1601 14.8285ZM68.7184 19.8069V11.4755H70.3121V12.8246H70.3435C70.4961 12.367 70.7354 12.012 71.0615 11.7595C71.3929 11.5018 71.8242 11.3729 72.3554 11.3729C72.4816 11.3729 72.5974 11.3782 72.7025 11.3887C72.8077 11.3992 72.8945 11.4071 72.9629 11.4124V12.9666C72.8998 12.9508 72.7867 12.9351 72.6236 12.9193C72.4606 12.8982 72.2817 12.8877 72.0871 12.8877C71.6191 12.8877 71.2166 13.0508 70.8801 13.3769C70.5488 13.703 70.3831 14.2053 70.3831 14.8838V19.8069H68.7184ZM77.6651 19.9962C76.8708 19.9962 76.174 19.8121 75.5744 19.444C74.9748 19.0757 74.5067 18.5655 74.17 17.9133C73.8386 17.2611 73.673 16.5091 73.673 15.657C73.673 14.7944 73.8386 14.037 74.17 13.3848C74.5067 12.7273 74.9748 12.2145 75.5744 11.8463C76.174 11.4729 76.8708 11.2862 77.6651 11.2862C78.4593 11.2862 79.1536 11.4729 79.7479 11.8463C80.3475 12.2145 80.8129 12.7273 81.1444 13.3848C81.4809 14.037 81.6493 14.7944 81.6493 15.657C81.6493 16.5091 81.4809 17.2611 81.1444 17.9133C80.8129 18.5655 80.3475 19.0757 79.7479 19.444C79.1536 19.8121 78.4593 19.9962 77.6651 19.9962ZM77.6651 18.5603C78.3803 18.5603 78.9431 18.2973 79.3534 17.7713C79.7637 17.2453 79.9688 16.5406 79.9688 15.657C79.9688 14.7628 79.7611 14.0501 79.3456 13.5189C78.9353 12.9877 78.3751 12.722 77.6651 12.722C76.955 12.722 76.3923 12.9877 75.9767 13.5189C75.5664 14.0449 75.3613 14.7575 75.3613 15.657C75.3613 16.5459 75.5664 17.2533 75.9767 17.7793C76.387 18.2999 76.9498 18.5603 77.6651 18.5603ZM83.1247 19.8069V11.4755H84.7894V19.8069H83.1247ZM83.9531 10.0396C83.6585 10.0396 83.4087 9.9423 83.2035 9.74768C83.0036 9.54781 82.9038 9.30587 82.9038 9.02184C82.9038 8.73256 83.0036 8.49061 83.2035 8.296C83.4087 8.09614 83.6585 7.9962 83.9531 7.9962C84.2476 7.9962 84.4975 8.09614 84.7026 8.296C84.9076 8.49061 85.0103 8.73256 85.0103 9.02184C85.0103 9.30587 84.9076 9.54781 84.7026 9.74768C84.4975 9.9423 84.2476 10.0396 83.9531 10.0396ZM89.8781 19.9726C89.1522 19.9726 88.5184 19.7911 87.9767 19.4282C87.4349 19.0599 87.0141 18.5524 86.7144 17.9055C86.4145 17.2533 86.2647 16.4985 86.2647 15.6412C86.2647 14.7838 86.4145 14.0317 86.7144 13.3848C87.0195 12.7326 87.4429 12.225 87.9846 11.8621C88.5264 11.4939 89.1548 11.3098 89.8702 11.3098C90.412 11.3098 90.9064 11.4229 91.3534 11.6491C91.8005 11.8752 92.1582 12.2197 92.4265 12.6826H92.4423V8.05143H94.1068V19.8069H92.4737V18.5367H92.4579C92.1792 19.0205 91.8137 19.3808 91.3613 19.6175C90.9142 19.8542 90.4198 19.9726 89.8781 19.9726ZM90.2174 18.5367C90.9274 18.5367 91.4928 18.2736 91.9135 17.7477C92.3396 17.2165 92.5527 16.5143 92.5527 15.6412C92.5527 14.7628 92.3396 14.0606 91.9135 13.5347C91.4928 13.0034 90.9274 12.7378 90.2174 12.7378C89.5441 12.7378 88.9971 12.9877 88.5763 13.4873C88.1609 13.9817 87.953 14.6997 87.953 15.6412C87.953 16.5827 88.1609 17.3006 88.5763 17.7951C88.9971 18.2894 89.5441 18.5367 90.2174 18.5367Z" fill="black"/>
</svg>
