<svg width="182" height="182" viewBox="0 0 182 182" fill="none" xmlns="http://www.w3.org/2000/svg">
<path fill-rule="evenodd" clip-rule="evenodd" d="M25.4705 35.3762C23 40.2249 23 46.5722 23 59.2667V122.733C23 135.428 23 141.775 25.4705 146.624C27.6436 150.889 31.1112 154.356 35.3762 156.529C40.2249 159 46.5722 159 59.2667 159H122.733C135.428 159 141.775 159 146.624 156.529C150.889 154.356 154.356 150.889 156.529 146.624C159 141.775 159 135.428 159 122.733V59.2667C159 46.5721 159 40.2249 156.529 35.3762C154.356 31.1112 150.889 27.6436 146.624 25.4705C141.775 23 135.428 23 122.733 23H59.2667C46.5721 23 40.2249 23 35.3762 25.4705C31.1112 27.6436 27.6436 31.1112 25.4705 35.3762ZM83.4445 98.5556H45.6667V136.333H83.4445V98.5556Z" fill="#030008"/>
</svg>
